<?xml version="1.0" encoding="utf-8"?>
<!-- Generator: Adobe Illustrator 19.2.1, SVG Export Plug-In . SVG Version: 6.00 Build 0)  -->
<svg version="1.1" id="Layer_1" xmlns="http://www.w3.org/2000/svg" xmlns:xlink="http://www.w3.org/1999/xlink" x="0px" y="0px"
	 viewBox="0 0 202.9 161.6" style="enable-background:new 0 0 202.9 161.6;" xml:space="preserve">
<style type="text/css">
	.st0{fill:#FFFFFF;}
	.st1{opacity:0.75;fill:none;stroke:#FFFFFF;stroke-width:2.3;stroke-miterlimit:10;enable-background:new    ;}
	.st2{opacity:0.75;}
	.st3{fill:none;stroke:#FFFFFF;stroke-linecap:round;stroke-miterlimit:10;}
	.st4{opacity:0.75;fill:#FFFFFF;enable-background:new    ;}
	.st5{font-family:'MyriadPro-Regular';}
	.st6{font-size:14px;}
	.st7{font-size:18px;}
</style>
<g>
	<polygon class="st0" points="31.2,42.8 36.2,36.4 35.5,28.3 30.5,34.7 	"/>
	<path class="st0" d="M25.4,52.1l2.2-7.2l-3.4-4.4c-1,2.2-1.8,4.4-2.6,6.7L25.4,52.1z"/>
	<path class="st0" d="M33.4,46.7l-2.2,7.2l4.8-1.7c0.6-2.5,1.5-4.9,2.4-7.3L33.4,46.7z"/>
	<path class="st0" d="M22.3,67.5l1-7.4l-4.2-4c-0.5,2.3-0.9,4.8-1.2,7.3L22.3,67.5z"/>
	<path class="st0" d="M29.3,60.8l-1,7.4l5.5-3c0.2-2.5,0.5-5,0.9-7.4L29.3,60.8z"/>
	<path class="st0" d="M22.5,74.3l-5.2-3.6c0,1-0.1,1.9-0.1,2.8c0,1.5,0.1,3.2,0.2,4.7l5.2,3.6L22.5,74.3z"/>
	<path class="st0" d="M28.7,74.2l0.1,7.5l5.5-4c-0.3-2.3-0.5-4.8-0.5-7.2L28.7,74.2z"/>
	<path class="st0" d="M25.8,96.1l-1.5-7.4L18.2,86c0.4,2.5,0.9,4.9,1.5,7.4L25.8,96.1z"/>
	<path class="st0" d="M30.2,87.5l1.5,7.4l4.9-5.4c-0.7-2.3-1.3-4.7-1.8-7.1L30.2,87.5z"/>
	<path class="st0" d="M32.1,109.3l-3.1-6.9l-7-1.5c0.8,2.3,1.7,4.6,2.7,6.8L32.1,109.3z"/>
	<path class="st0" d="M34.6,100l3.1,6.9l3.6-6.3c-1.1-2.2-2.2-4.4-3.1-6.8L34.6,100z"/>
	<path class="st0" d="M40.9,121.5l-4.3-6.1l-8-0.2c1.2,2.1,2.6,4.2,4,6.1L40.9,121.5z"/>
	<path class="st0" d="M41.6,111.9l4.3,6.1l2.4-6.8c-1.5-1.9-3-4-4.4-6.1L41.6,111.9z"/>
	<path class="st0" d="M43.6,134.1l8.7-1.8l-5.5-5.1l-8.3,1.7C40.2,130.7,41.9,132.4,43.6,134.1z"/>
	<path class="st0" d="M51.9,115.4l-0.9,7.4l5.5,5.1l0.9-7.2C55.4,118.9,53.7,117.2,51.9,115.4z"/>
	<path class="st0" d="M60,137.5l-7.3,3.9c1.5,1.1,2.9,2,4.4,2.9l1.6,0.8l8-4.3L60,137.5z"/>
	<path class="st0" d="M62.5,132l6.8,3.3l-1.3-7.4c-2.4-1.3-4.7-2.8-7-4.4L62.5,132z"/>
	<polygon class="st0" points="169.9,34.7 164.9,28.3 164.2,36.4 169.1,42.8 	"/>
	<path class="st0" d="M172.9,44.9l2.2,7.2l3.8-4.9c-0.7-2.3-1.6-4.5-2.6-6.7L172.9,44.9z"/>
	<path class="st0" d="M169.1,53.9l-2.2-7.2l-5.2-1.8c1,2.3,1.8,4.8,2.4,7.3L169.1,53.9z"/>
	<path class="st0" d="M182.4,63.3c-0.3-2.4-0.7-4.8-1.2-7.3l-4.2,4l1,7.4L182.4,63.3z"/>
	<path class="st0" d="M172.1,68.3l-1-7.4l-5.4-2.9c0.4,2.4,0.7,4.9,0.9,7.4L172.1,68.3z"/>
	<path class="st0" d="M177.8,81.8l5.2-3.6c0.1-1.5,0.2-3.1,0.2-4.7c0-1,0-1.9-0.1-2.8l-5.2,3.6L177.8,81.8z"/>
	<path class="st0" d="M171.6,81.8l0.1-7.5l-5.1-3.7c0,2.4-0.2,4.8-0.5,7.2L171.6,81.8z"/>
	<path class="st0" d="M176.1,88.8l-1.5,7.4l6.1-2.7c0.6-2.4,1.1-4.8,1.5-7.4L176.1,88.8z"/>
	<path class="st0" d="M168.6,94.9l1.5-7.4l-4.7-5c-0.5,2.4-1.1,4.8-1.8,7.1L168.6,94.9z"/>
	<path class="st0" d="M171.3,102.5l-3.1,6.9l7.4-1.5c1.1-2.2,1.9-4.5,2.7-6.8L171.3,102.5z"/>
	<path class="st0" d="M162.8,106.9l3.1-6.9l-3.6-6.2c-0.9,2.3-1.9,4.6-3.1,6.8L162.8,106.9z"/>
	<path class="st0" d="M163.8,115.4l-4.3,6.1l8.3-0.2c1.5-2,2.7-4,4-6.1L163.8,115.4z"/>
	<path class="st0" d="M154.4,118l4.3-6.1l-2.3-6.7c-1.3,2.1-2.7,4.1-4.4,6.1L154.4,118z"/>
	<path class="st0" d="M161.9,128.9l-8.3-1.7l-5.5,5.1l8.7,1.8C158.6,132.4,160.2,130.7,161.9,128.9z"/>
	<path class="st0" d="M142.9,120.6l0.9,7.2l5.5-5.1l-0.9-7.4C146.8,117.2,144.9,118.9,142.9,120.6z"/>
	<path class="st0" d="M140.4,137.5l-6.8,3.3l8,4.3l1.6-0.8c1.5-0.9,3-1.9,4.4-2.9L140.4,137.5z"/>
	<path class="st0" d="M131.1,135.3l6.8-3.3l1.5-8.5c-2.2,1.6-4.5,3.1-7,4.4L131.1,135.3z"/>
</g>
<line class="st1" x1="48" y1="79.5" x2="152.9" y2="79.5"/>
<g class="st2">
	<path class="st3" d="M30.5,46c-3.2,8.2-4.9,17-4.9,26.3c0,32,20.9,59.2,49.9,68.4"/>
	<path class="st3" d="M169.9,46c3.2,8.2,4.9,17,4.9,26.3c0,32-20.9,59.2-49.9,68.4"/>
</g>
<g>
	<g>
		<g>
			<polygon class="st0" points="98.9,18.7 111.1,30.8 107,34.8 109.4,37.2 116.1,30.8 98.9,13.8 92.2,20.3 94.8,22.8 			"/>
			<polygon class="st4" points="107,20.3 109.4,22.8 113.6,18.7 125.8,30.8 113.6,42.7 101.4,30.8 105.5,26.6 103,24.2 98.9,28.3 
				84.2,13.8 67.2,30.8 84.2,47.7 90.9,41.1 88.4,38.7 84.2,42.7 72.1,30.8 84.2,18.7 96.5,30.8 92.2,34.8 94.8,37.2 98.9,33.2 
				113.6,47.7 130.6,30.8 113.6,13.8 			"/>
			<polygon class="st0" points="98.9,42.7 86.7,30.8 90.9,26.6 88.4,24.2 81.8,30.8 98.9,47.7 105.5,41.1 103,38.7 			"/>
		</g>
		<g>
			<path class="st0" d="M114.5,53.9h-2.4v2.6h-1.7v2.2h1.6v4.6c0,2.5,0.8,3.7,3.7,3.7h1.1v-2.5h-0.9c-1.2,0-1.4-0.5-1.4-1.5v-4.4
				h2.6v-2.2h-2.6V53.9z"/>
			<rect x="119.8" y="52.4" class="st0" width="2.6" height="2.4"/>
			<rect x="119.3" y="56.5" class="st0" width="2.6" height="10.5"/>
			<path class="st0" d="M129.8,60.7c-2.7-0.8-3.2-1-3.2-1.5s0.6-1,1.6-1c1.4,0,1.9,0.7,2.3,1.6l2.2-0.6c-0.5-1.8-1.9-3.1-4.4-3.1
				c-2.5,0-4,1.6-4,3.2s1.2,2.4,3.6,3.1c2.2,0.6,2.8,0.7,2.8,1.5s-0.8,1.1-2.1,1.1c-1.4,0-2.2-0.8-2.3-2.2l-2.3,0.6
				c0.2,1.8,1.6,3.8,4.8,3.8c3,0,4.3-1.8,4.3-3.3C132.9,62.5,132.4,61.5,129.8,60.7z"/>
			<path class="st0" d="M139.1,56.1c-2.7,0-4.8,2.2-4.8,5.6s2.1,5.6,5,5.6c2.2,0,3.5-1.1,4.4-2.3l-1.8-1.6c-0.5,0.7-1.2,1.6-2.6,1.6
				c-1.4,0-2.3-0.9-2.3-2.5h7v-0.8C143.9,58.2,141.8,56.1,139.1,56.1z M136.8,60.5c0.1-1.1,1-2.2,2.3-2.2c1.4,0,2.2,0.8,2.3,2.2
				H136.8z"/>
			<polygon class="st0" points="58.2,67 67,67 67,64.5 60.9,64.5 60.9,61.1 66.5,61.1 66.5,58.6 60.9,58.6 60.9,55.6 67,55.6 
				67,53.1 58.2,53.1 			"/>
			<polygon class="st0" points="78.7,56.5 76,56.5 73.7,59.9 73.6,59.9 71.2,56.5 68.6,56.5 72.1,61.6 68.4,67 71.2,67 73.6,63.2 
				73.7,63.2 76.2,67 79,67 75.2,61.6 			"/>
			<path class="st0" d="M85.7,56.1c-2.1,0-2.8,1.3-2.8,1.3l0,0v-1.1h-2.4v15h2.6v-5.5l0,0c0,0,0.7,1.3,2.7,1.3
				c2.4,0,4.6-1.9,4.6-5.6C90.4,58.1,88.1,56.1,85.7,56.1z M85.2,64.9c-1.5,0-2.5-1.1-2.5-3.2s1.1-3.2,2.5-3.2s2.5,1.1,2.5,3.2
				S86.7,64.9,85.2,64.9z"/>
			<path class="st0" d="M96.6,56.1c-2.7,0-4.8,2.2-4.8,5.6s2.1,5.6,5,5.6c2.2,0,3.5-1.1,4.4-2.3l-1.8-1.6c-0.5,0.7-1.2,1.6-2.6,1.6
				s-2.3-0.9-2.3-2.5h7v-0.8C101.3,58.2,99.2,56.1,96.6,56.1z M94.3,60.5c0.1-1.1,1-2.2,2.3-2.2c1.4,0,2.2,0.8,2.3,2.2H94.3z"/>
			<path class="st0" d="M107.7,56.2c-1,0-1.8,0.6-2.2,1.3l0,0v-1.1h-2.4v10.5h2.6v-5.7c0-1.7,0.7-2.4,1.8-2.4c0.2,0,0.6,0.1,0.8,0.2
				l0.4-2.5C108.4,56.3,108.1,56.2,107.7,56.2z"/>
		</g>
	</g>
</g>
<text transform="matrix(1 0 0 1 52.2389 96.25)"><tspan x="0" y="0" class="st0 st5 st6">Best Electricians</tspan><tspan x="19.5" y="16.8" class="st0 st5 st6">in Seattle</tspan></text>
<text transform="matrix(1 0 0 1 80.4327 145.15)" class="st0 st5 st7">2016</text>
</svg>
